<?xml version="1.0" encoding="UTF-8"?>
<svg width="16px" height="16px" viewBox="0 0 16 16" version="1.1" xmlns="http://www.w3.org/2000/svg" xmlns:xlink="http://www.w3.org/1999/xlink">
    <title>管件</title>
    <g id="管件" stroke="none" stroke-width="1" fill="none" fill-rule="evenodd">
        <g id="gf管道" fill="#000000" fill-rule="nonzero">
            <rect id="矩形" opacity="0" x="0" y="0" width="16" height="16"></rect>
            <path d="M15.3513514,0 L12.7567568,0 C12.3978378,0 12.1081081,0.306285707 12.1081081,0.685714285 L12.1081081,1.82857144 L3.89189189,1.82857144 L3.89189189,0.685714285 C3.89189189,0.306285707 3.60216217,0 3.24324324,0 L0.648648649,0 C0.289729723,0 0,0.306285728 0,0.685714285 L0,8.91428571 C0,9.29371429 0.289729723,9.6 0.648648649,9.6 L3.24324324,9.6 C3.60216217,9.6 3.89189189,9.29371429 3.89189189,8.91428571 L3.89189189,7.77142858 L5.18918919,7.77142858 L5.18918919,11.8857143 L3.67567567,11.8857143 C3.31675674,11.8857143 3.02702702,12.192 3.02702702,12.5714286 L3.02702702,15.3142857 C3.02702702,15.6937143 3.31675674,16 3.67567567,16 L12.3243243,16 C12.6832433,16 12.972973,15.6937143 12.972973,15.3142857 L12.972973,12.5714286 C12.972973,12.192 12.6832433,11.8857143 12.3243243,11.8857143 L10.8108108,11.8857143 L10.8108108,7.77142858 L12.1081081,7.77142858 L12.1081081,8.91428571 C12.1081081,9.29371429 12.3978378,9.6 12.7567568,9.6 L15.3513514,9.6 C15.7102703,9.6 16,9.29371429 16,8.91428571 L16,0.685714285 C16,0.306285707 15.7102703,0 15.3513514,0 L15.3513514,0 Z M2.5945946,8.22857142 L1.2972973,8.22857142 L1.2972973,1.37142857 L2.5945946,1.37142857 L2.5945946,8.22857142 Z M11.6756757,13.2571429 L11.6756757,14.6285714 L4.32432432,14.6285714 L4.32432432,13.2571429 L11.6756757,13.2571429 Z M12.1081081,6.4 L10.1621622,6.4 C9.80324323,6.4 9.51351351,6.70628571 9.51351351,7.08571429 L9.51351351,11.8857143 L6.48648649,11.8857143 L6.48648649,7.08571429 C6.48648649,6.70628571 6.19675677,6.4 5.83783784,6.4 L3.89189189,6.4 L3.89189189,3.20000001 L12.1081081,3.20000001 L12.1081081,6.4 Z M14.7027027,8.22857142 L13.4054054,8.22857142 L13.4054054,1.37142857 L14.7027027,1.37142857 L14.7027027,8.22857142 Z" id="形状"></path>
        </g>
    </g>
</svg>